<svg viewBox="0 0 40 40" height="151.181" width="151.181" xmlns="http://www.w3.org/2000/svg"><circle r="19.5" cy="20" cx="20" style="display:inline;fill:#252c61;fill-opacity:1;fill-rule:evenodd;stroke:none;stroke-width:.108894;stroke-linecap:round;stroke-linejoin:round;stroke-miterlimit:4;stroke-dasharray:none;stroke-dashoffset:0;stroke-opacity:1"/><path d="M29.856 26.298c.804-.227 1.348-.278 1.634-.153.286.125.425.308.417.55-.009.24-.297.365-.866.375-.569.009-1.061.116-1.476.322-.416.205-.69.511-.82.918-.13.407-.034.717.292.932.325.215.657.317.995.307.338-.01.637-.045.898-.104.26-.059.565-.158.914-.299.349-.14.742-.344 1.179-.612.437-.268.426-.232-.033.109-.46.34-.877.627-1.251.858-.375.232-.708.401-.998.507a4.206 4.206 0 0 1-.857.218c-.281.04-.617.047-1.008.022-.39-.026-.758-.183-1.104-.47-.345-.288-.511-.626-.5-1.012.011-.387.095-.712.253-.976.157-.263.394-.52.712-.773.317-.25.857-.49 1.62-.719" style="fill:#fff;fill-opacity:1;fill-rule:nonzero;stroke:none;stroke-width:.264583;stroke-opacity:.690196"/><g style="display:inline;stroke:#fff;stroke-width:1.03184;stroke-miterlimit:4;stroke-dasharray:none;stroke-opacity:1"><path style="fill:#292b66;fill-opacity:1;fill-rule:nonzero;stroke:#fff;stroke-width:1.03184;stroke-miterlimit:4;stroke-dasharray:none;stroke-opacity:1" d="M0 0h-40.5v40.5L-27 54h40.5V13.5z" transform="matrix(.22494 0 0 -.22494 22.56 20.308)"/></g><path style="display:inline;fill:#ccc;fill-opacity:1;fill-rule:nonzero;stroke:#fff;stroke-width:.232097;stroke-miterlimit:4;stroke-dasharray:none;stroke-opacity:1" d="M25.597 17.272h-9.11v-9.11h9.11z"/><path style="display:inline;fill:#fff;fill-opacity:1;fill-rule:nonzero;stroke:none;stroke-width:.214373;stroke-opacity:1" d="M24.095 18.372h-8.683V9.69h8.683z"/><path style="display:inline;fill:#252c61;fill-opacity:1;fill-rule:nonzero;stroke:#fff;stroke-width:.232097;stroke-miterlimit:4;stroke-dasharray:none;stroke-opacity:1" d="M22.56 20.308h-9.11v-9.11h9.11z"/><path d="M10.54 25.85c.333-.12.663-.198.994-.23.33-.033.529.018.596.153.068.134.033.263-.106.388-.138.124-.324.193-.56.204-.234.012-.49.138-.766.377-.276.24-.438.526-.485.857-.048.333-.042.562.018.69.06.128.123.377.19.745.068.37.013.684-.165.944-.178.26-.367.449-.566.566-.2.117-.447.201-.74.253a3.988 3.988 0 0 1-.75.073 2.136 2.136 0 0 1-.658-.125.606.606 0 0 1-.424-.478c-.05-.238.391-.672 1.321-1.3.93-.627 1.002-.645.217-.053-.785.593-1.094.963-.928 1.112.166.148.367.19.603.124s.423-.156.561-.271c.137-.114.244-.259.31-.423.07-.167.101-.322.095-.464-.005-.143-.063-.461-.174-.954-.11-.493-.104-.863.02-1.108a1.79 1.79 0 0 1 .543-.633c.238-.176.523-.325.855-.447" style="fill:#fff;fill-opacity:1;fill-rule:nonzero;stroke:none;stroke-width:.264583;stroke-opacity:.690196"/><path d="M16.829 26.669a.885.885 0 0 1 .452-.069c.127.022.215.07.263.143.048.074-.006.348-.163.825a8.35 8.35 0 0 0-.319 1.216c-.055.336-.018.572.111.71.129.14.357.192.683.16.326-.033.681-.195 1.065-.487.385-.291.428-.305.13-.04-.271.243-.547.48-.828.713-.255.211-.478.344-.668.398a1.599 1.599 0 0 1-.662.027 1.233 1.233 0 0 1-.607-.239 1.342 1.342 0 0 1-.363-.438c-.088-.17-.092-.376-.013-.619.078-.242.13-.452.153-.63.024-.176-.07-.168-.278.024-.21.193-.467.403-.772.63-.305.226-.629.426-.968.596-.341.172-.61.282-.804.33-.191.046-.386.08-.582.1a.99.99 0 0 1-.536-.09.522.522 0 0 1-.302-.363c-.04-.162.007-.402.136-.72.13-.318.345-.75.648-1.297.302-.546.223-.843-.238-.888-.46-.046-.804-.129-1.033-.25-.228-.122-.089-.103.42.054.507.157.862.15 1.063-.025.2-.174.385-.275.555-.305.16-.029.325-.02.481.028.152.046.25.126.293.238.043.111.032.243-.032.394-.065.15-.282.546-.652 1.187-.37.64-.386.925-.046.855.339-.07.95-.434 1.836-1.091.885-.657 1.41-1.016 1.577-1.077" style="fill:#fff;fill-opacity:1;fill-rule:nonzero;stroke:none;stroke-width:.264583;stroke-opacity:.690196"/><path d="M21.128 27.418c-.174.054-.432.205-.774.453-.343.248-.577.48-.705.696-.128.217-.164.391-.108.522.055.13.306.025.753-.316.447-.34.74-.623.88-.845.14-.223.213-.377.219-.463.006-.086-.083-.101-.265-.047m.882-4.925a.489.489 0 0 1 .41-.14c.173.013.34.075.478.18.147.106.303.26.468.459.165.2.306.596.423 1.19.117.596-.112 1.45.1 1.618.21.169.309.322.294.461-.015.14-.101.252-.26.338a.635.635 0 0 1-.458.078c-.148-.034-.322.137-.522.514-.21.39-.454.76-.73 1.106-.288.36-.549.661-.783.904a5.519 5.519 0 0 1-.96.76c-.404.262-.718.41-.94.444a1.41 1.41 0 0 1-.581-.014c-.165-.044-.315-.153-.452-.326-.137-.174-.207-.495-.211-.964-.004-.47.184-.929.563-1.38.378-.45 1.053-.839 2.023-1.168.97-.33 1.223-.477 1.415-.676.61-.628.586-1.009.526-1.35-.06-.34-.25-.685-.568-1.036-.32-.35-.462-.58-.427-.687a.847.847 0 0 1 .192-.31M25.155 27.96c-.179-.174-.406-.13-.682.13-.277.262-.445.542-.504.839-.059.297-.042.507.05.628.093.123.19.194.293.215.103.02.25-.03.442-.15.191-.12.35-.385.478-.795.126-.41.1-.7-.077-.867m-.591-1.503a1.26 1.26 0 0 1 .578-.21c.227-.027.415-.014.562.039.148.054.278.15.372.277.1.132.357.198.769.198.412.001.924.011 1.538.031.613.02.483.032-.39.036-.874.005-1.37.023-1.49.056-.12.033-.172.144-.155.335.017.19.03.392.039.605.008.212.006.448-.007.708-.013.26-.04.453-.085.578-.05.14-.114.272-.192.397-.085.138-.21.283-.373.436a2.92 2.92 0 0 1-.6.422 3.8 3.8 0 0 1-.655.289 1.102 1.102 0 0 1-.642-.001 1.317 1.317 0 0 1-.557-.295 1.876 1.876 0 0 1-.338-.41c-.085-.14-.117-.385-.099-.734.02-.348.073-.627.164-.839.09-.21.206-.528.392-.757.184-.228.315-.411.566-.648.252-.237.453-.408.603-.513" style="fill:#fff;fill-opacity:1;fill-rule:nonzero;stroke:none;stroke-width:.264583;stroke-opacity:.690196"/></svg>