<svg width="107.374" height="155.886" viewBox="0 0 28.409 41.245" xml:space="preserve" xmlns="http://www.w3.org/2000/svg"><defs><clipPath id="a"><path data-name="Rectangle 7794" fill="none" d="M0 0h253.043v97.041H0z"/></clipPath></defs><g data-name="Groupe 6697" clip-path="url(#a)" transform="translate(0 -.562) scale(.43876)" style="stroke-width:.603023"><path data-name="Tracé 786" d="M1.19 82.458h1.889a2.716 2.716 0 0 0 2.726-2.699v-.106a2.73 2.73 0 0 0-.928-1.983 2.45 2.45 0 0 0 .822-1.863 2.55 2.55 0 0 0-2.62-2.594h-1.89a.846.846 0 0 0-.823.824v7.597a.845.845 0 0 0 .823.823m2.97-2.805v.106a1.067 1.067 0 0 1-1.065 1.065h-1.08V78.52h1.078a1.115 1.115 0 0 1 1.066 1.132m-.106-3.845a.99.99 0 0 1-.96 1.079H2.013v-2.039h1.08a.89.89 0 0 1 .959.96" style="stroke-width:.603023"/><path data-name="Tracé 787" d="M10.207 82.525a2.615 2.615 0 0 0 2.699-2.648v-4.095a2.645 2.645 0 0 0-2.7-2.645h-.119a2.677 2.677 0 0 0-2.7 2.645v4.11a2.64 2.64 0 0 0 2.7 2.634zm1.051-2.635a1.01 1.01 0 0 1-1.051 1.014h-.12a1.017 1.017 0 0 1-1.052-1.027v-4.095a1.01 1.01 0 0 1 1.052-1.013h.12a1.01 1.01 0 0 1 1.051 1.013z" style="stroke-width:.603023"/><path data-name="Tracé 788" d="M16.22 78.733h.699l1.583 3.322a.754.754 0 0 0 .713.47.836.836 0 0 0 .863-.797.893.893 0 0 0-.098-.367l-1.363-2.869a2.656 2.656 0 0 0 1.553-2.46v-.118a2.67 2.67 0 0 0-2.7-2.7h-2.075a.846.846 0 0 0-.824.824v7.676a.824.824 0 0 0 1.647 0zm2.303-2.819v.119a1 1 0 0 1-.974 1.066h-1.33v-2.25h1.29a1.017 1.017 0 0 1 1.014 1.065" style="stroke-width:.603023"/><path data-name="Tracé 789" d="M27.255 79.798V75.86a2.645 2.645 0 0 0-2.7-2.645h-1.993a.846.846 0 0 0-.824.824v7.597a.846.846 0 0 0 .824.823h1.994a2.652 2.652 0 0 0 2.699-2.66m-1.648.013a1.01 1.01 0 0 1-1.051 1.013h-1.173v-5.978h1.172a1.01 1.01 0 0 1 1.052 1.012z" style="stroke-width:.603023"/><path data-name="Tracé 790" d="M34.44 81.648a.79.79 0 0 0-.824-.823h-3.048V78.52h2.004a.817.817 0 1 0 0-1.634h-2.004V74.85h3.048a.817.817 0 1 0 0-1.635h-3.872a.845.845 0 0 0-.823.824v7.597a.845.845 0 0 0 .823.824h3.872a.79.79 0 0 0 .823-.81" style="stroke-width:.603023"/><path data-name="Tracé 791" d="m40.28 80.397.476 1.558a.748.748 0 0 0 .755.57.795.795 0 0 0 .85-.784.94.94 0 0 0-.04-.268l-2.405-7.65a.933.933 0 0 0-1.8 0L35.7 81.468a.608.608 0 0 0-.045.273.795.795 0 0 0 .85.784.767.767 0 0 0 .77-.57l.475-1.558zm-.51-1.634H38.26l.755-2.532z" style="stroke-width:.603023"/><path data-name="Tracé 792" d="M46.222 82.525h.12a2.703 2.703 0 0 0 2.712-2.686v-5.88a.824.824 0 1 0-1.647 0v5.879a1.066 1.066 0 0 1-1.066 1.065h-.119a1.048 1.048 0 0 1-1.053-1.065v-5.88a.824.824 0 1 0-1.646 0v5.88a2.696 2.696 0 0 0 2.7 2.685" style="stroke-width:.603023"/><path data-name="Tracé 793" d="m52.044 82.083 1.27-2.54 1.257 2.541a.765.765 0 0 0 .712.44.798.798 0 0 0 .765-1.18l-1.824-3.648 1.677-3.367a.808.808 0 0 0-.75-1.196.758.758 0 0 0-.712.455l-1.125 2.262-1.124-2.26a.766.766 0 0 0-.712-.457.826.826 0 0 0-.85.797.87.87 0 0 0 .085.396l1.679 3.37-1.81 3.645a.798.798 0 0 0 .764 1.18.742.742 0 0 0 .699-.44" style="stroke-width:.603023"/><path data-name="Tracé 794" d="M6.527 85.893h-.198c-.532 0-.729.344-.885.694l-1.587 3.58-1.587-3.58c-.156-.35-.353-.694-.885-.694h-.198a.846.846 0 0 0-.824.824v7.756a.824.824 0 0 0 1.648 0v-4.558l1.013 2.335a.905.905 0 0 0 1.664 0L5.7 89.914v4.558a.824.824 0 0 0 1.647 0v-7.755a.845.845 0 0 0-.821-.824" style="stroke-width:.603023"/><path data-name="Tracé 795" d="M13.788 87.606a.817.817 0 1 0 0-1.634H9.917a.846.846 0 0 0-.824.824v7.597a.846.846 0 0 0 .824.824h3.871a.817.817 0 1 0 0-1.634h-3.047V91.28h2.004a.817.817 0 1 0 0-1.635H10.74v-2.039z" style="stroke-width:.603023"/><path data-name="Tracé 796" d="M20.568 85.972H16.92a.817.817 0 1 0 0 1.634h1v6.867a.824.824 0 0 0 1.647 0v-6.867h1a.817.817 0 1 0 0-1.634" style="stroke-width:.603023"/><path data-name="Tracé 797" d="M25.87 85.972h-2.075a.846.846 0 0 0-.824.824v7.677a.824.824 0 0 0 1.648 0V91.49h.7l1.582 3.322a.754.754 0 0 0 .713.47.836.836 0 0 0 .863-.797.884.884 0 0 0-.098-.366l-1.362-2.867a2.655 2.655 0 0 0 1.553-2.46v-.12a2.671 2.671 0 0 0-2.7-2.7m1.052 2.7v.119a1 1 0 0 1-.973 1.065h-1.33v-2.25h1.29a1.017 1.017 0 0 1 1.013 1.065" style="stroke-width:.603023"/><path data-name="Tracé 798" d="M33.017 85.893H32.9a2.677 2.677 0 0 0-2.7 2.645v4.11a2.64 2.64 0 0 0 2.7 2.634h.118a2.616 2.616 0 0 0 2.7-2.647V88.54a2.645 2.645 0 0 0-2.7-2.645m1.053 2.645v4.11a1.01 1.01 0 0 1-1.053 1.013H32.9a1.017 1.017 0 0 1-1.053-1.026V88.54a1.01 1.01 0 0 1 1.053-1.013h.118a1.01 1.01 0 0 1 1.053 1.013" style="stroke-width:.603023"/><path data-name="Tracé 799" d="M40.202 85.972h-1.994a.846.846 0 0 0-.824.824v7.677a.824.824 0 0 0 1.648 0v-3.114h1.17a2.693 2.693 0 1 0 0-5.387m1.054 2.686a1.048 1.048 0 0 1-1.053 1.065h-1.171v-2.116h1.17a1.054 1.054 0 0 1 1.054 1.053" style="stroke-width:.603023"/><path data-name="Tracé 800" d="M47.111 85.893h-.119a2.676 2.676 0 0 0-2.7 2.645v4.11a2.639 2.639 0 0 0 2.7 2.633h.12a2.615 2.615 0 0 0 2.699-2.644V88.54a2.645 2.645 0 0 0-2.7-2.645m1.052 6.755a1.01 1.01 0 0 1-1.052 1.013h-.119a1.017 1.017 0 0 1-1.053-1.026V88.54a1.01 1.01 0 0 1 1.053-1.013h.12a1.01 1.01 0 0 1 1.051 1.013z" style="stroke-width:.603023"/><path data-name="Tracé 801" d="M55.739 93.583h-2.545v-6.866a.824.824 0 0 0-1.648 0v7.677a.845.845 0 0 0 .824.823h3.369a.817.817 0 1 0 0-1.634" style="stroke-width:.603023"/><path data-name="Tracé 802" d="M62.764 93.584h-3.047V91.28h2.003a.817.817 0 1 0 0-1.634h-2.003v-2.04h3.047a.817.817 0 1 0 0-1.635h-3.871a.846.846 0 0 0-.824.824v7.597a.846.846 0 0 0 .824.824h3.871a.817.817 0 1 0 0-1.634" style="stroke-width:.603023"/><path data-name="Tracé 803" d="m12.427 83.2-1.849.912a.748.748 0 0 0-.454.7.824.824 0 0 0 .783.836.936.936 0 0 0 .369-.098l1.85-.899a.749.749 0 0 0 .455-.699.824.824 0 0 0-.785-.836.936.936 0 0 0-.369.084" style="stroke-width:.603023"/><path data-name="Tracé 804" d="M42.617 53.166a1.732 1.732 0 0 1-1.298-.582l-17.933-20.14a1.737 1.737 0 0 1 2.594-2.312l17.933 20.143a1.737 1.737 0 0 1-1.297 2.89" fill="#dd1a45" style="stroke-width:.603023"/><path data-name="Tracé 805" d="M42.617 53.166a1.735 1.735 0 0 1-1.482-.83L33.491 39.86a1.737 1.737 0 1 1 2.962-1.814l7.64 12.476a1.736 1.736 0 0 1-1.478 2.645" fill="#91c492" style="stroke-width:.603023"/><path data-name="Tracé 806" d="M42.617 53.17a1.738 1.738 0 0 1-1.631-1.144L33.08 30.488a1.737 1.737 0 0 1 3.26-1.197l7.907 21.54a1.736 1.736 0 0 1-1.63 2.339" fill="#e86061" style="stroke-width:.603023"/><path data-name="Tracé 807" d="M42.614 53.167a1.737 1.737 0 0 1-1.716-1.476L36.305 21.45a1.736 1.736 0 1 1 3.432-.52l4.598 30.24a1.737 1.737 0 0 1-1.459 1.98 1.946 1.946 0 0 1-.263.019" fill="#ffbf00" style="stroke-width:.603023"/><path data-name="Tracé 808" d="M42.617 53.168a1.716 1.716 0 0 1-.368-.04 1.737 1.737 0 0 1-1.33-2.063l10.466-48.43a1.737 1.737 0 0 1 3.396.734L44.315 51.798a1.734 1.734 0 0 1-1.698 1.37" fill="#e86061" style="stroke-width:.603023"/><path data-name="Tracé 809" d="M42.617 53.166a1.734 1.734 0 0 1-1.651-2.274L50.984 20.15a1.737 1.737 0 1 1 3.302 1.072L44.268 51.964a1.738 1.738 0 0 1-1.65 1.2" fill="#2fa070" style="stroke-width:.603023"/><path data-name="Tracé 810" d="M42.615 53.166a1.737 1.737 0 0 1-1.52-2.574L60.22 15.796a1.737 1.737 0 0 1 3.043 1.673L44.138 52.267a1.737 1.737 0 0 1-1.523.9" fill="#dd1a45" style="stroke-width:.603023"/><path data-name="Tracé 811" d="M42.615 53.167a1.737 1.737 0 0 1-1.402-2.758l11.85-16.269a1.738 1.738 0 0 1 2.808 2.047L44.022 52.452a1.73 1.73 0 0 1-1.404.715" fill="#91c492" style="stroke-width:.603023"/><path data-name="Tracé 812" d="M42.616 53.167a1.737 1.737 0 0 1-1.297-2.892l20.396-22.92a1.737 1.737 0 1 1 2.594 2.31l-20.395 22.92a1.73 1.73 0 0 1-1.298.582" fill="#ffbf00" style="stroke-width:.603023"/><path data-name="Tracé 813" d="M42.617 53.166a1.736 1.736 0 0 1-1.193-2.998l11.759-11.114a1.737 1.737 0 1 1 2.385 2.524l-11.76 11.111a1.733 1.733 0 0 1-1.193.474" fill="#e86061" style="stroke-width:.603023"/><path data-name="Tracé 814" d="M42.618 53.166a1.736 1.736 0 0 1-1.033-3.133L59.09 38.268a1.736 1.736 0 1 1 2.064 2.788l-17.504 11.77a1.724 1.724 0 0 1-1.03.34" fill="#2fa070" style="stroke-width:.603023"/><path data-name="Tracé 815" d="M42.618 53.166a1.737 1.737 0 0 1-.718-3.318l9.343-4.238a1.736 1.736 0 1 1 1.43 3.161l-9.34 4.24a1.746 1.746 0 0 1-.716.155" fill="#dd1a45" style="stroke-width:.603023"/><path data-name="Tracé 816" d="M42.615 53.167a1.737 1.737 0 0 1-.37-3.432l17.762-3.888a1.737 1.737 0 0 1 .744 3.393l-17.764 3.887a1.749 1.749 0 0 1-.372.04" fill="#91c492" style="stroke-width:.603023"/><path data-name="Tracé 817" d="M52.727 56.515a1.725 1.725 0 0 1-.547-.088l-10.11-3.35a1.737 1.737 0 1 1 1.094-3.296l10.11 3.35a1.737 1.737 0 0 1-.546 3.385" fill="#ffbf00" style="stroke-width:.603023"/><path data-name="Tracé 818" d="M56.547 62.542a1.725 1.725 0 0 1-.967-.296L41.646 52.87a1.737 1.737 0 1 1 1.939-2.881l13.934 9.376a1.737 1.737 0 0 1-.972 3.177" fill="#e86061" style="stroke-width:.603023"/><path data-name="Tracé 819" d="M48.792 62.541a1.734 1.734 0 0 1-1.452-.781l-6.174-9.375a1.737 1.737 0 0 1 2.902-1.908l6.174 9.372a1.737 1.737 0 0 1-1.448 2.692" fill="#2fa070" style="stroke-width:.603023"/><path data-name="Tracé 820" d="M42.817 69.415A1.736 1.736 0 0 1 41.08 67.7l-.205-16.25a1.738 1.738 0 0 1 1.716-1.76h.022a1.737 1.737 0 0 1 1.736 1.717l.201 16.249a1.737 1.737 0 0 1-1.715 1.758z" fill="#dd1a45" style="stroke-width:.603023"/><path data-name="Tracé 821" d="M40.654 62.23a1.773 1.773 0 0 1-.494-.018 1.737 1.737 0 0 1-1.397-2.02l1.669-9.184a1.737 1.737 0 1 1 3.417.62l-1.67 9.183a1.738 1.738 0 0 1-1.525 1.417" fill="#e86061" style="stroke-width:.603023"/><path data-name="Tracé 822" d="M32.066 70.638a1.736 1.736 0 0 1-1.583-2.45l10.552-17.47a1.737 1.737 0 0 1 3.167 1.425L33.651 69.617a1.738 1.738 0 0 1-1.585 1.021" fill="#ffbf00" style="stroke-width:.603023"/><path data-name="Tracé 823" d="M31.721 61.506a1.737 1.737 0 0 1-1.136-3.05L41.48 50.12a1.737 1.737 0 0 1 2.271 2.627l-10.894 8.336a1.728 1.728 0 0 1-1.135.423" fill="#91c492" style="stroke-width:.603023"/><path data-name="Tracé 824" d="M42.617 53.166a1.737 1.737 0 0 1-1.566-.987l-3.814-7.935a1.737 1.737 0 0 1 3.131-1.502l3.813 7.936a1.734 1.734 0 0 1-.812 2.316 1.716 1.716 0 0 1-.752.172" fill="#dd1a45" style="stroke-width:.603023"/><path data-name="Tracé 825" d="M42.613 53.149a1.729 1.729 0 0 1-1.13-.418L13.69 28.894a1.737 1.737 0 1 1 2.261-2.637l27.79 23.837a1.737 1.737 0 0 1-1.128 3.055" fill="#2fa070" style="stroke-width:.603023"/><path data-name="Tracé 826" d="M42.617 53.169h-.057L1.682 51.846a1.737 1.737 0 1 1 .111-3.471l40.879 1.319a1.737 1.737 0 0 1-.055 3.472" fill="#2fa070" style="stroke-width:.603023"/><path data-name="Tracé 827" d="M42.599 53.14a1.75 1.75 0 0 1-.321-.03L26.2 50.103a1.737 1.737 0 1 1 .638-3.413l16.08 3.008a1.737 1.737 0 0 1-.318 3.445" fill="#dd1a45" style="stroke-width:.603023"/><path data-name="Tracé 828" d="M42.605 53.15a1.722 1.722 0 0 1-.828-.215L11.856 36.69a1.737 1.737 0 0 1 1.658-3.052l29.922 16.249a1.737 1.737 0 0 1-.83 3.262" fill="#ffbf00" style="stroke-width:.603023"/><path data-name="Tracé 829" d="M42.615 53.166a1.73 1.73 0 0 1-.643-.123L19.12 43.968a1.736 1.736 0 1 1 1.282-3.226l22.856 9.075a1.736 1.736 0 0 1-.644 3.349" fill="#91c492" style="stroke-width:.603023"/><path data-name="Tracé 830" d="M42.615 53.167a1.725 1.725 0 0 1-.981-.306l-15.99-9.745a1.736 1.736 0 1 1 1.964-2.86l15.99 9.742a1.737 1.737 0 0 1-.983 3.169" fill="#e86061" style="stroke-width:.603023"/></g></svg>